# xmcd
#
# Track frame offsets: 
#        150
#        15857
#        30184
#        45455
#        61930
#        77105
#        91182
#        107183
#        124298
#        141955
#        160005
#        176763
#        192419
#        207854
#        225451
#        241861
#        257811
#
# Disc length: 3649 seconds
#
# Revision: 0
# Processed by: cddbd v1.5.2PL0 Copyright (c) Steve Scherf et al.
# Submitted via: ExactAudioCopy v1.0b1
#
DISCID=d30e3f11
DTITLE=Rodney Atkins - Take A Back Road (Deluxe Version)
DYEAR=2011
DGENRE=Country
TTITLE0=Take A Back Road
TTITLE1=He's Mine
TTITLE2=Family
TTITLE3=The Corner
TTITLE4=She's A Girl Ain't She
TTITLE5=She'd Rather Fight
TTITLE6=Feet
TTITLE7=Cabin In The Woods
TTITLE8=Just Wanna Rock N' Roll
TTITLE9=Growing Up Like That
TTITLE10=Tips
TTITLE11=Lifelines
TTITLE12=Farmer's Daughter
TTITLE13=Watching You
TTITLE14=If You're Going Through Hell
TTITLE15=These Are My People
TTITLE16=It's America
EXTD=
EXTT0=
EXTT1=
EXTT2=
EXTT3=
EXTT4=
EXTT5=
EXTT6=
EXTT7=
EXTT8=
EXTT9=
EXTT10=
EXTT11=
EXTT12=
EXTT13=
EXTT14=
EXTT15=
EXTT16=
PLAYORDER=
